<svg width="43" height="43" viewBox="0 0 43 43" fill="none" xmlns="http://www.w3.org/2000/svg">
<path d="M21.5 0.875C7.04375 0.875 0.875 7.04375 0.875 21.5C0.875 35.9563 7.04375 42.125 21.5 42.125C35.9563 42.125 42.125 35.9563 42.125 21.5C42.125 7.04375 35.9563 0.875 21.5 0.875ZM28.4506 25.7994C29.1837 26.5325 29.1837 27.7175 28.4506 28.4506C27.7175 29.1837 26.5325 29.1837 25.7994 28.4506L21.5 24.1512L17.2006 28.4506C16.4675 29.1837 15.2825 29.1837 14.5494 28.4506C13.8163 27.7175 13.8163 26.5325 14.5494 25.7994L18.8488 21.5L14.5494 17.2006C13.8163 16.4675 13.8163 15.2825 14.5494 14.5494C15.2825 13.8163 16.4675 13.8163 17.2006 14.5494L21.5 18.8488L25.7994 14.5494C26.5325 13.8163 27.7175 13.8163 28.4506 14.5494C29.1837 15.2825 29.1837 16.4675 28.4506 17.2006L24.1512 21.5L28.4506 25.7994Z" fill="#EC6A96"/>
</svg>
